<?xml version="1.0" encoding="utf-8"?>
<!-- Generator: Adobe Illustrator 25.0.1, SVG Export Plug-In . SVG Version: 6.00 Build 0)  -->
<svg version="1.1" id="Capa_2" xmlns="http://www.w3.org/2000/svg" xmlns:xlink="http://www.w3.org/1999/xlink" x="0px" y="0px"
	 viewBox="0 0 1920 1080" style="enable-background:new 0 0 1920 1080;" xml:space="preserve">
<style type="text/css">
	.st0{fill:none;stroke:#000000;stroke-width:2;stroke-miterlimit:10;}
	.st1{fill:#FFFFFF;stroke:#000000;stroke-width:2;stroke-miterlimit:10;}
</style>
<polygon class="st0" points="631.79,368.65 868.08,578.52 882.74,571.22 721.66,429.93 "/>
<polygon class="st1" points="631.79,711.8 868.21,502.95 882.51,509.59 723.7,650.52 "/>
<polygon class="st0" points="960.47,533.76 960.47,548.4 721.66,429.93 631.79,368.65 "/>
<path class="st0" d="M959.98,148.03l-83.72,343.42l12.45,6.25l71.76-292.46v-57.15C960.47,147.8,960.05,147.75,959.98,148.03z"/>
<polygon class="st0" points="944.44,540.45 723.7,650.52 631.79,711.8 960.47,548.4 "/>
<path class="st0" d="M960.47,877.25l-72.05-293.03l-14.52,7.22l86.07,340.55c0.07,0.29,0.49,0.23,0.49-0.06V877.25z"/>
<path class="st0" d="M960.47,205.25l71.56,292.46l13.09-6.59l-84.15-343.09c-0.07-0.29-0.49-0.24-0.49,0.06V205.25z"/>
<polygon class="st0" points="1197.57,652.06 1288.21,711.8 960.47,548.4 976.36,540.45 "/>
<polygon class="st0" points="1196.3,430.44 1037.66,571.37 1053.86,579.54 1288.21,368.65 "/>
<polygon class="st1" points="1037.87,510.02 1051.53,503.13 1288.21,711.8 1197.57,652.06 "/>
<path class="st0" d="M960.96,931.93l84.15-341.33l-12.8-6.38l-71.84,293.03v54.62C960.47,932.16,960.89,932.22,960.96,931.93z"/>
<polygon class="st0" points="960.47,533.76 1288.21,368.65 1196.3,430.44 960.47,548.4 "/>
</svg>
